<svg width="120" height="32" viewBox="0 0 120 32" fill="none" xmlns="http://www.w3.org/2000/svg">
  <rect width="32" height="32" rx="4" fill="#000000"/>
  <path d="M8 16C8 11.5817 11.5817 8 16 8C20.4183 8 24 11.5817 24 16C24 20.4183 20.4183 24 16 24C11.5817 24 8 20.4183 8 16Z" fill="white"/>
  <path d="M16 10C12.6863 10 10 12.6863 10 16C10 19.3137 12.6863 22 16 22C19.3137 22 22 19.3137 22 16C22 12.6863 19.3137 10 16 10ZM16 20C13.7909 20 12 18.2091 12 16C12 13.7909 13.7909 12 16 12C18.2091 12 20 13.7909 20 16C20 18.2091 18.2091 20 16 20Z" fill="#000000"/>
  <path d="M40 12H44.5C46.433 12 48 13.567 48 15.5C48 17.433 46.433 19 44.5 19H42V22H40V12ZM44.5 17C45.3284 17 46 16.3284 46 15.5C46 14.6716 45.3284 14 44.5 14H42V17H44.5Z" fill="#000000"/>
  <path d="M50 12H52V20H58V22H50V12Z" fill="#000000"/>
  <path d="M60 12H62V22H60V12Z" fill="#000000"/>
  <path d="M70 12H72L76 22H73.8L73 20H69L68.2 22H66L70 12ZM72.3 18L71 14.5L69.7 18H72.3Z" fill="#000000"/>
  <path d="M78 12H80V20H86V22H78V12Z" fill="#000000"/>
  <path d="M88 12H90V22H88V12Z" fill="#000000"/>
  <path d="M92 12H94V20H100V22H92V12Z" fill="#000000"/>
  <path d="M102 12H110V14H104V16H109V18H104V20H110V22H102V12Z" fill="#000000"/>
</svg>